<svg xmlns="http://www.w3.org/2000/svg" viewBox="0 0 350 231.548"><path fill="gold" d="M37.073 7.765c-2.672 19.788-5.01 40.913-3.84 60.534-1.504 2.087-8.684 4.175-9.269 1.837-.167-.585-.25-1.336-.25-2.254-2.672.334-5.177 0-5.51-1.503-.418-1.754-.502-4.593-.335-7.598-.334.083-.668.25-1.002.417-.835 2.004-1.753 6.262-1.67 9.519-2.672 1.753-7.43 4.341-9.017 2.922-.418-.334-.501-1.503-.334-2.922-2.171.667-4.008.834-5.01 0-1.92-1.67 0-9.018.501-11.356 2.505-11.69 6.262-24.63 10.02-36.07.25-1.002 1.586-2.087 2.42-2.755-1.419.5-3.256 1.169-6.428 2.421.334-5.26 2.922-12.357 5.093-14.277C16.199 3.423 26.803.918 34.735 2.17c-.25 1.838-.5 3.591-.668 5.345 1.002 0 2.088.083 3.006.25zm-4.676-3.84c-5.928-.836-15.53 1.67-18.536 4.341-1.503 1.252-3.673 6.847-4.174 9.518 1.001-.334 8.015-3.34 8.182-.667.084 1.252-4.258 4.007-4.592 4.842-3.674 11.356-7.348 24.214-9.853 35.903-.417 1.587-.918 3.757-1.169 5.678-.25 1.753-.5 3.256 0 3.59 1.503 1.336 5.762-1.169 8.35-2.839 0-3.256.835-7.43 1.753-9.518 2.255-1.17 5.094-2.004 8.1-1.837-.585 5.177-.836 10.604-.251 12.942.584 2.087 6.847 0 8.433-1.92-1.169-19.455 1.085-40.329 3.757-60.034zm-9.351 16.28c-.585 7.348-1.587 15.698-2.505 23.046-1.586.166-4.425.667-6.43 1.419 1.67-8.183 4.51-17.033 7.766-24.464.25-.585 1.252-.752 1.169 0zm47.592-9.935c-7.515 18.536-14.946 43.334-17.367 60.617-1.503 1.336-10.687.418-13.526-2.922-3.674-.918-6.763-2.922-6.68-6.346.167-19.788 0-32.897 3.09-53.019 1.67-2.755 8.767-7.014 13.108-3.09-.25 1.17-.584 2.589-.835 4.092 1.253-.167 2.422 0 3.173.668-.751 3.173-1.586 8.433-2.338 14.612C52.353 14.528 55.191 6.763 57.53.835 61.287-.25 68.05 2.087 68.133 6.429l-.334.835c1.587.752 2.839 1.92 2.839 3.006zm-4.592-4.175c-.167-1.837-4.509-4.008-6.93-3.507-3.674 9.185-9.018 24.214-14.445 48.26-.334 1.17-1.837 1.003-1.92-1.502-.084-13.527 2.421-34.985 4.174-43.084-2.087-1.503-7.347.919-8.767 3.09-3.005 19.537-2.838 32.646-3.005 52.267-.084 4.426 11.438 6.18 13.526 4.843C51.184 49.18 58.53 24.464 66.046 6.095zm30.392.167c.25 2.171-1.586 9.018-4.258 10.187-2.171.918-5.928.5-8.6 1.67-.668 1.419-1.503 4.007-2.171 6.763 1.503-.334 3.006-.585 5.01-.585a11.287 11.287 0 0 1-.167 6.262c1.085-.25 2.17-.417 3.089-.417.835 3.674-1.92 8.182-4.342 9.852-1.336.919-4.592 1.503-6.262 2.171-.751 2.505-1.336 6.513-1.837 10.186l5.761-1.753a18.85 18.85 0 0 1 0 7.18c1.002-.333 1.92-.667 2.923-.918.835 4.008-1.503 9.018-3.257 10.437-3.256 2.588-10.02 4.091-13.943 3.256-1.002-.167-1.92-1.169-2.171-2.254-.835-.083-1.67-.167-2.338-.25-2.004-.418-3.757-2.589-3.59-5.01 1.336-14.779 3.924-28.305 7.013-42.249.334-1.586 1.336-2.672 2.422-3.59-.585.167-1.253.417-1.837.584-1.086.334-2.004.501-4.175.418.167-5.093 2.672-10.604 5.177-13.025C71.89 2.17 88.589-.501 93.85.75c.083 1.336 0 3.34-.501 5.344 1.336 0 2.421 0 3.089.167zm-4.509-3.84c-4.174-.669-19.287 2.003-21.625 4.258-2.004 1.92-4.091 6.512-4.425 9.518 2.17-.417 4.425-1.67 6.596-1.837 2.004-.167 1.586 1.42.668 2.422-1.253 1.335-3.34 2.588-3.757 4.425-3.09 13.86-5.678 27.303-7.014 41.998-.083 1.336.918 2.588 1.92 2.755 3.841.752 10.437-.668 13.61-3.173 1.587-1.252 3.674-5.844 3.173-9.518-2.922.835-6.596 2.17-9.519 2.17.334-3.756 1.253-13.024 2.672-17.784 1.67-.668 5.01-1.252 6.346-2.17 2.254-1.587 4.843-5.678 4.258-9.102-1.252.084-2.672.418-4.175.835-1.67.501-3.256 1.002-5.093 1.253.334-5.427 2.171-12.023 3.507-14.862 2.254-.919 4.592-.919 7.014-1.253.668-.083 1.252-.25 1.753-.5 2.338-1.003 4.091-7.014 4.091-9.436zm27.303 16.448c.501 9.268-1.586 20.206-8.767 26.718 1.002 9.352 1.754 13.026 5.093 21.96-2.003 2.003-6.93 6.345-8.35 2.838-.25-.668-.5-1.252-.75-2.003-2.171.751-4.092.584-5.01-1.503-.585-1.587-1.17-3.257-1.587-4.843-.334 3.507-.417 6.847-.334 9.268-3.423 1.503-8.182.25-8.767-2.171-3.256-.25-6.095-1.753-5.928-4.843.668-13.275 4.008-30.225 7.014-45.004.25-1.085 1.002-1.92 1.753-2.671-1.085.334-2.338.918-5.427 1.753.584-4.258 1.169-9.519 3.423-13.276C93.766 1.336 102.2-.584 107.543.334c4.592.835 6.846 4.425 8.182 8.183 2.505 2.504 3.34 6.763 3.507 10.353zm-4.592-4.091c-.25-5.26-2.004-11.356-7.515-12.358-5.01-.918-12.19 1.086-13.776 3.758-1.503 2.588-2.255 6.345-2.672 9.351 1.753-.668 4.258-2.087 6.012-1.085 2.003 1.002-2.505 3.924-2.756 5.26-3.006 14.612-6.345 31.478-7.013 44.67-.084 2.087 4.341 3.924 8.015 2.505-.25-6.262 1.002-17.45 2.004-23.796.167-.919 1.336-.585 1.503.333.668 3.507 1.085 7.515 1.92 11.44.752 4.007 1.754 8.015 3.09 11.188 1.252 3.173 5.51-.835 7.43-2.756-3.256-8.85-4.007-12.524-5.093-22.042 7.265-6.513 9.352-17.284 8.851-26.468zm-8.6-.919c3.59 6.012.167 14.445-2.17 18.035-.836 1.253-3.424 3.507-5.261 3.507 1.252-8.35 2.087-13.944 4.091-21.792 1.42-.501 2.756-.585 3.34.25zm41.163-6.095c-2.672 19.788-5.01 40.913-3.84 60.534-1.504 2.087-8.684 4.175-9.269 1.837-.167-.585-.25-1.336-.25-2.254-2.672.334-5.177 0-5.51-1.503-.418-1.754-.502-4.593-.335-7.598-.334.083-.668.25-1.002.417-.835 2.004-1.753 6.262-1.67 9.519-2.671 1.753-7.43 4.341-9.017 2.922-.418-.334-.501-1.503-.334-2.922-2.171.667-4.008.834-5.01 0-1.92-1.67 0-9.018.501-11.356 2.505-11.69 6.262-24.63 10.02-36.07.25-1.002 1.586-2.087 2.42-2.755-1.418.5-3.255 1.169-6.428 2.421.334-5.26 2.922-12.357 5.093-14.277 3.757-3.257 14.361-5.762 22.293-4.51-.25 1.838-.5 3.591-.668 5.345 1.002 0 2.088.083 3.006.25zm-4.676-3.84c-5.928-.836-15.53 1.67-18.536 4.341-1.502 1.252-3.673 6.847-4.174 9.518 1.002-.334 8.015-3.34 8.182-.667.084 1.252-4.258 4.007-4.592 4.842-3.674 11.356-7.348 24.214-9.852 35.903-.418 1.587-.919 3.757-1.17 5.678-.25 1.753-.5 3.256 0 3.59 1.504 1.336 5.762-1.169 8.35-2.839 0-3.256.835-7.43 1.754-9.518 2.254-1.17 5.093-2.004 8.099-1.837-.585 5.177-.835 10.604-.25 12.942.584 2.087 6.846 0 8.432-1.92-1.169-19.455 1.086-40.329 3.757-60.034zm-9.351 16.28c-.585 7.348-1.587 15.698-2.505 23.046-1.586.166-4.425.667-6.43 1.419 1.67-8.183 4.51-17.033 7.766-24.464.25-.585 1.252-.752 1.169 0zm44.002 10.855c-5.01 14.612-6.596 27.971-7.431 41.414-2.088 1.002-6.763.334-7.515-2.338-1.503-.084-3.006-.418-4.091-1.169-.501.084-.918.167-1.336.084-2.421-.251-4.175-1.17-5.51-2.589-3.758-.5-6.68-3.757-8.1-8.099-2.588-8.35-1.42-22.043 2.255-31.895S158.642 3.34 168.828.334c1.336 1.42 2.422 3.757 3.09 6.262.167-.083.835-.167 1.002-.167 1.92 2.839 4.174 11.272.584 12.691-3.84 1.503-7.014 4.008-9.602 7.014 3.757-1.252 8.016-1.67 11.188-.083a58.631 58.631 0 0 0-1.502 4.592c1.419-.167 2.671-.084 3.59.417zm-4.676-3.924c-3.507-1.336-11.94 1.837-13.693 4.425-1.586 2.422-2.004 4.676-2.338 7.431 1.503-.584 6.763-2.839 8.1-1.92 1.252.835-1.003 2.505-1.587 3.006-.501.417-2.422 1.92-2.505 2.588-.418 2.922-1.086 6.262-1.253 9.185-2.838 2.254-5.844 3.84-7.264.417-2.588-6.43-.334-16.532 2.84-23.379 3.088-6.345 7.764-11.689 14.36-14.36 2.923-1.17 1.42-8.935-1.002-11.857-8.099 2.588-17.2 14.945-20.79 24.547-3.507 9.519-4.592 22.711-2.17 30.56 1.252 3.924 3.256 6.262 7.514 6.68 1.252.166 3.173-.669 5.844-2.255l-.167 2.839c-.167 2.839 4.342 3.924 6.764 3.006.835-13.276 2.42-26.552 7.347-40.913zM159.978 39.91c-1.002.25-2.338 1.002-3.423 1.336-.919 3.673-1.336 7.43-1.002 10.77.5-.25 1.002-.667 1.586-1.168.334-2.672.918-5.762 1.252-8.433.167-1.002 1.253-2.088 1.587-2.505zm47.008-33.649c.25 2.171-1.587 9.018-4.259 10.187-2.17.918-5.928.5-8.6 1.67-.668 1.419-1.503 4.007-2.17 6.763 1.502-.334 3.005-.585 5.01-.585a11.287 11.287 0 0 1-.168 6.262c1.086-.25 2.171-.417 3.09-.417.835 3.674-1.92 8.182-4.342 9.852-1.336.919-4.592 1.503-6.262 2.171-.752 2.505-1.336 6.513-1.837 10.186l5.76-1.753a18.85 18.85 0 0 1 0 7.18c1.003-.333 1.921-.667 2.923-.918.835 4.008-1.503 9.018-3.256 10.437-3.256 2.588-10.02 4.091-13.944 3.256-1.002-.167-1.92-1.169-2.17-2.254-.836-.083-1.67-.167-2.338-.25-2.004-.418-3.758-2.589-3.59-5.01 1.335-14.779 3.924-28.305 7.013-42.249.334-1.586 1.336-2.672 2.421-3.59-.584.167-1.252.417-1.837.584-1.085.334-2.004.501-4.174.418.167-5.093 2.671-10.604 5.176-13.025C182.438 2.17 199.137-.501 204.397.75c.084 1.336 0 3.34-.5 5.344 1.335 0 2.42 0 3.089.167zm-4.51-3.84c-4.174-.669-19.286 2.003-21.624 4.258-2.004 1.92-4.092 6.512-4.426 9.518 2.171-.417 4.426-1.67 6.597-1.837 2.003-.167 1.586 1.42.667 2.422-1.252 1.335-3.34 2.588-3.757 4.425-3.09 13.86-5.677 27.303-7.013 41.998-.084 1.336.918 2.588 1.92 2.755 3.84.752 10.437-.668 13.61-3.173 1.586-1.252 3.673-5.844 3.173-9.518-2.923.835-6.597 2.17-9.519 2.17.334-3.756 1.253-13.024 2.672-17.784 1.67-.668 5.01-1.252 6.346-2.17 2.254-1.587 4.842-5.678 4.258-9.102-1.253.084-2.672.418-4.175.835-1.67.501-3.256 1.002-5.093 1.253.334-5.427 2.17-12.023 3.507-14.862 2.254-.919 4.592-.919 7.013-1.253.668-.083 1.253-.25 1.754-.5 2.338-1.003 4.09-7.014 4.09-9.436zm41.331 16.364c-10.103 5.678-18.703 18.954-17.116 34.567.166.084.417.25.584.334 2.254 1.002 5.845-1.336 10.27-4.592.751 2.505 1.002 5.594.668 8.6.918-.5 1.753-1.085 2.588-1.67.835 2.84 0 10.688-3.423 13.777-2.839 2.505-8.433 3.09-11.606.5-.417-.333-.751-.667-1.169-1.001-1.503-.334-2.839-.918-4.091-1.837-10.354-8.35-8.6-28.305-4.509-39.076C221.096 14.862 231.533 2.755 239.465 0c.752.918 1.67 3.674 2.255 6.763.5-.25.918-.417 1.336-.584.751.918 3.84 10.854.751 12.607zm-4.342-4.508c2.756-1.587.167-10.02-.751-11.773-5.928 2.338-15.864 13.526-20.79 26.635-4.008 10.77-5.26 29.307 3.924 36.654 3.006 2.422 8.35 1.92 11.105-.5 3.005-2.756 3.924-9.603 3.423-12.776-2.922 2.088-7.18 4.342-9.936 3.09-2.505-1.17-4.008-3.841-4.342-6.179-1.67-15.864 7.014-29.39 17.367-35.151zm31.227-2.088c4.76 16.282.25 35.152-6.178 47.927-2.171 4.425-5.51 9.351-11.105 9.351-2.004 0-4.008-1.169-5.344-2.588-3.256-.585-6.011-3.09-7.013-5.595-3.758-10.019-1.92-23.88.5-34.233 1.754-7.264 4.51-14.277 8.434-20.706 2.17-3.507 5.928-6.012 10.103-5.678 3.924.334 7.097 3.507 8.099 6.93.083.25.167.585.25.919 1.086 1.085 1.92 2.337 2.254 3.673zM266.184 8.1c-.835-2.588-3.34-5.093-6.262-5.344-3.173-.25-6.346 1.67-8.1 4.676-3.84 6.179-6.512 13.025-8.182 20.122-2.505 10.27-4.175 23.63-.584 32.981.751 2.087 3.423 4.342 6.178 4.342 5.26 0 8.517-4.676 10.771-9.101C266.351 43 270.86 24.297 266.184 8.099zm-5.761 22.377c-1.002 8.015-4.51 18.202-8.266 22.376-.919.919-2.84 1.42-3.173-1.001-1.503-11.857 1.002-24.548 6.68-34.651.667-1.169 2.755-2.17 3.673-.835 1.837 2.672 1.67 9.852 1.086 14.11zm-1.67-6.012c-3.424 7.014-5.344 15.03-5.595 23.128 2.422-4.675 4.51-11.522 5.26-17.45.168-1.754.335-3.758.335-5.678zm31.644 32.73c0 2.672-.5 6.68-3.506 9.352-3.257 2.922-8.183 3.84-12.274 4.007-2.171.084-3.09-.751-3.173-2.588-.334.084-.668.084-1.002.084-3.173.167-5.01-1.67-4.843-4.676.919-19.204 6.513-48.594 9.435-57.779 1.587-4.926 8.934-4.008 12.524 1.92l-.417 1.587c1.085.668 2.087 1.586 2.839 2.839-2.505 8.683-7.264 27.136-8.934 40.077 1.92-.333 4.091-.667 6.763-.751.083 2.087 0 4.258-.501 6.262 1.085-.167 2.087-.334 3.09-.334zm-4.592-3.757c-2.922.25-6.596 1.002-9.936 1.42.418-12.692 6.43-36.655 9.435-47.092-2.505-3.924-7.347-4.509-8.266-1.503-2.839 8.934-8.516 38.157-9.351 57.194-.084 1.754.668 2.589 2.671 2.505 4.092-.167 8.934-1.085 12.107-3.924 2.672-2.421 3.257-5.928 3.34-8.6zm33.983-41.247c4.759 16.282.25 35.152-6.179 47.927-2.17 4.425-5.51 9.351-11.105 9.351-2.004 0-4.008-1.169-5.344-2.588-3.256-.585-6.011-3.09-7.013-5.595-3.757-10.019-1.92-23.88.5-34.233 1.754-7.264 4.51-14.277 8.434-20.706 2.17-3.507 5.928-6.012 10.103-5.678 3.924.334 7.097 3.507 8.099 6.93.083.25.167.585.25.919 1.086 1.085 1.92 2.337 2.255 3.673zm-4.51-4.091c-.834-2.588-3.339-5.093-6.261-5.344-3.173-.25-6.346 1.67-8.1 4.676-3.84 6.179-6.512 13.025-8.182 20.122-2.505 10.27-4.175 23.63-.584 32.981.751 2.087 3.423 4.342 6.178 4.342 5.26 0 8.517-4.676 10.771-9.101 6.346-12.776 10.855-31.479 6.18-47.677zm-5.76 22.377c-1.002 8.015-4.509 18.202-8.266 22.376-.919.919-2.84 1.42-3.173-1.001-1.503-11.857 1.002-24.548 6.68-34.651.667-1.169 2.755-2.17 3.673-.835 1.837 2.672 1.67 9.852 1.086 14.11zm-1.67-6.012c-3.423 7.014-5.344 15.03-5.594 23.128 2.421-4.675 4.508-11.522 5.26-17.45.167-1.754.334-3.758.334-5.678zm42.081-5.594c.501 9.268-1.586 20.206-8.767 26.718 1.002 9.352 1.754 13.026 5.094 21.96-2.004 2.003-6.93 6.345-8.35 2.838-.25-.668-.5-1.252-.751-2.003-2.171.751-4.092.584-5.01-1.503-.585-1.587-1.169-3.257-1.587-4.843-.333 3.507-.417 6.847-.333 9.268-3.424 1.503-8.183.25-8.767-2.171-3.257-.25-6.096-1.753-5.929-4.843.668-13.275 4.008-30.225 7.014-45.004.25-1.085 1.002-1.92 1.753-2.671-1.085.334-2.338.918-5.427 1.753.585-4.258 1.17-9.519 3.423-13.276 2.171-3.757 10.604-5.677 15.948-4.759 4.592.835 6.847 4.425 8.183 8.183 2.504 2.504 3.34 6.763 3.506 10.353zm-4.592-4.091c-.25-5.26-2.004-11.356-7.514-12.358-5.01-.918-12.19 1.086-13.777 3.758-1.503 2.588-2.254 6.345-2.672 9.351 1.753-.668 4.258-2.087 6.012-1.085 2.004 1.002-2.505 3.924-2.756 5.26-3.005 14.612-6.345 31.478-7.013 44.67-.084 2.087 4.341 3.924 8.015 2.505-.25-6.262 1.002-17.45 2.004-23.796.167-.919 1.336-.585 1.503.333.668 3.507 1.086 7.515 1.92 11.44.752 4.007 1.754 8.015 3.09 11.188 1.252 3.173 5.51-.835 7.43-2.756-3.255-8.85-4.007-12.524-5.092-22.042 7.264-6.513 9.351-17.284 8.85-26.468zm-8.6-.919c3.59 6.012.167 14.445-2.17 18.035-.836 1.253-3.424 3.507-5.26 3.507 1.251-8.35 2.086-13.944 4.09-21.792 1.42-.501 2.756-.585 3.34.25zM71.016 124.577c.172 20.68-4.826 45.324-19.302 62.04-3.619 4.136-14.131 8.79-18.784 6.894-2.068 12.925-4.136 24.471-4.309 37.913-3.274.69-13.959-1.723-16.2-6.72-6.548-1.896-12.752-5.86-12.407-11.202 2.93-32.4 8.272-58.25 14.993-89.615.517-2.757 3.619-5.514 5.515-7.41-2.585.69-5.687 1.896-13.443 4.136 2.586-8.79 3.964-18.612 8.617-26.712 4.481-7.928 21.025-11.202 31.365-8.617 8.617 2.068 13.96 9.306 16.544 17.406 5.17 5.342 7.41 14.131 7.41 21.887zm-9.479-8.617c-.172-11.374-5.17-24.127-15.51-26.54-9.65-2.413-23.61 1.207-26.712 6.549-3.102 5.687-4.48 12.063-6.031 18.44 2.757-1.034 11.201-4.826 12.752-.69 1.379 3.964-6.376 8.445-6.893 11.03-6.721 31.193-11.891 56.87-14.82 89.097-.346 5.17 10.34 8.617 14.82 8.272.172-13.27 2.24-24.644 4.48-38.43 5.17 2.068 15.166-2.24 18.785-6.205 14.304-16.544 19.302-40.843 19.13-61.523zm-17.578-3.275c6.549 13.27.345 33.089-6.204 46.876-1.206 2.585-5.86 7.065-10.168 5.342 2.93-17.923 5.515-34.984 9.823-51.7 1.724-2.069 5.343-2.758 6.55-.518zm87.547-14.476c1.378.345-.862 17.578-6.205 23.266-2.24 2.412-9.823.344-13.959 2.757-3.102 12.236-8.1 40.671-11.03 64.798a97.042 97.042 0 0 0 7.067-2.068 37.792 37.792 0 0 1 .517 14.476c2.585-.517 4.48-1.034 5.687-1.55 1.723 8.271-2.24 18.611-5.515 21.541-5.687 5.342-30.503 10.685-38.086 10.168-2.413-.345-3.275-2.24-3.275-5.343-2.24.173-4.308.173-5.687.173-8.961-.862-7.065-11.547-2.585-29.125 3.102 0 6.721-.517 11.72-1.551 1.55-24.127 6.548-41.36 10.684-66.177-1.379.345-2.585.69-3.274 1.034-.345-1.723-.173-5.342.861-9.133-4.136 1.723-8.789 3.963-12.408 5.17-1.206-8.962.862-24.127 10.168-30.676 8.272-5.515 37.052-10.513 49.977-9.996.69 2.069.69 5.86-.172 12.409 2.068-.173 3.964-.173 5.515-.173zm-8.79-7.755c-12.235-.344-36.88 4.309-44.117 9.134-6.894 4.653-9.134 16.372-8.962 21.197 6.204-1.895 22.576-6.204 23.438-3.102 1.206 4.136-7.238 8.617-7.755 11.891-4.309 26.023-9.651 43.429-11.03 69.796-5.86 1.206-10.512 2.068-12.58 2.24-2.93 11.547-5.17 19.991-.173 20.508 7.238.517 31.882-4.825 37.397-9.995 2.93-2.585 6.549-11.891 5.343-19.646-2.758.689-8.1 2.068-15.338 3.619 2.757-27.23 9.133-65.832 12.925-80.998 2.757-1.55 5.515-1.55 8.617-1.723 2.412 0 4.653 0 5.687-1.034 2.412-2.758 4.308-8.272 5.342-13.27.862-4.48 1.896-8.272 1.206-8.617zm53.424 31.365c-20.852 11.719-38.603 39.12-35.328 71.347.344.172.861.517 1.206.69 4.653 2.067 12.063-2.758 21.197-9.48 1.551 5.171 2.068 11.547 1.379 17.751 1.896-1.034 3.619-2.24 5.342-3.446 1.724 5.86 0 22.059-7.065 28.435-5.86 5.17-17.406 6.376-23.955 1.034-.862-.69-1.551-1.379-2.413-2.068-3.102-.69-5.86-1.896-8.444-3.791-21.37-17.234-17.75-58.422-9.306-80.653 10.512-27.919 32.054-52.907 48.426-58.594 1.55 1.895 3.447 7.583 4.653 13.959 1.034-.517 1.896-.862 2.757-1.206 1.551 1.895 7.928 22.403 1.551 26.022zm-8.961-9.306c5.687-3.274.345-20.68-1.551-24.3-12.236 4.826-32.744 27.92-42.912 54.976-8.272 22.231-10.857 60.49 8.1 75.655 6.204 4.998 17.234 3.964 22.92-1.034 6.205-5.687 8.1-19.819 7.067-26.367-6.032 4.308-14.821 8.961-20.508 6.376-5.17-2.413-8.272-7.927-8.962-12.753-3.447-32.743 14.476-60.662 35.846-72.553zm84.1-15.51c-4.654 7.927-10.513 17.75-14.304 25.85-3.102 6.549-18.44 34.467-22.92 45.324 3.618 19.991 5.514 33.433 13.269 52.218-4.998 8.961-14.476 10.857-17.234 7.238-.517-.69-1.034-1.896-1.55-3.791-3.792 1.034-7.411.344-9.824-2.758-1.378-1.895-2.93-7.41-4.308-13.614-.69 5.17-1.379 10.168-1.896 16.716-3.274 3.792-17.578 9.996-17.923 4.136v-3.619c-6.548 1.896-11.89 0-12.063-4.825-.69-14.476 12.063-100.816 19.474-123.91 2.757-8.444 17.06-12.063 26.712-5.858a515.26 515.26 0 0 1-2.585 8.444c2.585-.172 4.997.345 6.893 1.379 3.102-5.687 5.687-10.168 7.066-11.547 5.687-6.032 23.954-8.444 26.195.517l-3.447 6.032c4.308-.172 8.1.862 8.445 2.068zm-9.651-8.617c-1.551-1.206-12.753-2.93-18.44 2.93-3.447 3.791-19.646 36.707-27.574 53.251-1.895 3.792-4.997 4.826-4.653 2.24 3.102-19.128 6.894-36.534 12.753-54.802-5.86-3.102-16.027.173-17.578 5.343-7.238 22.576-19.991 108.57-19.302 122.358.173 2.412 3.275 1.895 6.721.689 3.792-1.206 7.928-3.447 9.479-5.17.69-9.479 1.895-15.338 2.757-23.955 1.551-3.274 3.964-8.444 6.721-13.442 1.379 5.687 2.93 14.476 4.653 22.748 1.896 8.445 3.62 16.2 4.998 17.923 2.068 2.758 10.685 1.896 15.682-6.72-3.79-9.307-6.204-17.407-8.1-25.506-1.895-8.272-3.274-16.545-5.17-26.712 4.481-11.202 19.992-39.12 23.094-45.67 3.619-8.099 9.478-17.75 13.959-25.505zm61.179 7.583c.517 4.48-3.275 18.612-8.79 21.025-4.48 1.896-12.235 1.034-17.75 3.447-1.379 2.93-3.102 8.272-4.48 13.959 3.101-.69 6.203-1.207 10.34-1.207a23.297 23.297 0 0 1-.345 12.925c2.24-.517 4.48-.861 6.376-.861 1.724 7.583-3.963 16.889-8.961 20.335-2.758 1.896-9.479 3.102-12.925 4.481-1.551 5.17-2.758 13.442-3.792 21.025l11.891-3.62a38.907 38.907 0 0 1 0 14.822c2.068-.69 3.964-1.379 6.032-1.896 1.724 8.272-3.102 18.612-6.72 21.542-6.722 5.342-20.681 8.444-28.78 6.721-2.069-.345-3.965-2.413-4.482-4.653a213.209 213.209 0 0 1-4.825-.517c-4.136-.862-7.755-5.342-7.41-10.34 2.757-30.503 8.1-58.422 14.476-87.202.69-3.274 2.757-5.514 4.997-7.41-1.206.345-2.585.862-3.79 1.206-2.241.69-4.137 1.034-8.618.862.345-10.513 5.515-21.887 10.685-26.884 6.204-6.205 40.671-11.72 51.528-9.134.173 2.757 0 6.893-1.034 11.03 2.758 0 4.998 0 6.377.344zm-9.306-7.927c-8.617-1.38-39.81 4.136-44.635 8.789-4.136 3.963-8.445 13.442-9.134 19.646 4.48-.862 9.134-3.447 13.615-3.792 4.136-.344 3.274 2.93 1.378 4.998-2.585 2.758-6.893 5.343-7.755 9.134-6.376 28.608-11.719 56.354-14.476 86.685-.172 2.757 1.896 5.342 3.964 5.687 7.927 1.55 21.542-1.38 28.09-6.55 3.275-2.584 7.583-12.063 6.55-19.645-6.033 1.723-13.615 4.48-19.647 4.48.69-7.755 2.585-26.884 5.515-36.707 3.446-1.379 10.34-2.585 13.097-4.48 4.653-3.275 9.996-11.72 8.79-18.785-2.586.172-5.516.861-8.618 1.723-3.446 1.034-6.72 2.068-10.512 2.585.69-11.202 4.48-24.816 7.238-30.676 4.653-1.895 9.478-1.895 14.476-2.585 1.379-.172 2.585-.517 3.62-1.034 4.825-2.068 8.444-14.476 8.444-19.473zm56.353 33.95c1.034 19.129-3.274 41.705-18.095 55.147 2.068 19.301 3.62 26.884 10.513 45.324-4.137 4.136-14.304 13.097-17.234 5.86-.517-1.38-1.034-2.586-1.551-4.137-4.48 1.551-8.444 1.207-10.34-3.102-1.206-3.274-2.413-6.72-3.274-9.995-.69 7.238-.862 14.131-.69 19.13-7.066 3.101-16.889.516-18.095-4.482-6.721-.517-12.58-3.619-12.236-9.995 1.379-27.401 8.272-62.385 14.476-92.889.517-2.24 2.068-3.963 3.62-5.515-2.241.69-4.826 1.896-11.202 3.62 1.206-8.79 2.412-19.647 7.065-27.402 4.481-7.755 21.887-11.719 32.916-9.823 9.479 1.723 14.132 9.134 16.89 16.889 5.17 5.17 6.893 13.96 7.237 21.37zm-9.478-8.445c-.517-10.857-4.136-23.437-15.51-25.505-10.34-1.896-25.161 2.24-28.436 7.755-3.102 5.342-4.653 13.097-5.514 19.301 3.619-1.379 8.789-4.308 12.408-2.24 4.136 2.068-5.17 8.1-5.687 10.857-6.204 30.159-13.098 64.97-14.476 92.2-.173 4.308 8.961 8.099 16.544 5.17-.517-12.926 2.068-36.019 4.136-49.116.344-1.896 2.757-1.207 3.102.69 1.378 7.237 2.24 15.51 3.964 23.609 1.55 8.272 3.619 16.544 6.376 23.093 2.585 6.549 11.374-1.723 15.338-5.687-6.721-18.268-8.272-25.85-10.513-45.497 14.993-13.442 19.302-35.673 18.268-54.63zm-17.75-1.896c7.41 12.409.344 29.814-4.481 37.225-1.724 2.585-7.066 7.238-10.858 7.238 2.586-17.234 4.309-28.78 8.445-44.98 2.93-1.034 5.687-1.206 6.893.517z"/></svg>
